<svg width="1544" height="320" viewBox="0 0 1544 320" fill="none" xmlns="http://www.w3.org/2000/svg">
<path d="M312.411 100.929H369.462C384.562 100.929 395.887 103.992 403.437 110.117C410.987 116.1 414.762 125.858 414.762 139.391C414.762 147.51 413.551 153.992 411.129 158.835C408.708 163.536 404.577 167.739 398.736 171.442C405.146 174.149 409.847 178.066 412.839 183.195C415.973 188.323 417.54 195.445 417.54 204.562C417.54 218.665 413.409 229.135 405.146 235.973C396.884 242.81 385.274 246.229 370.317 246.229H312.411V100.929ZM368.821 185.545H341.898V221.015H368.821C375.232 221.015 379.933 219.733 382.924 217.169C386.058 214.605 387.625 209.904 387.625 203.066C387.625 191.385 381.357 185.545 368.821 185.545ZM367.967 126.143H341.898V160.758H368.18C379.292 160.758 384.847 154.989 384.847 143.451C384.847 131.912 379.22 126.143 367.967 126.143Z" fill="#E74C3C"/>
<path d="M440.056 246.229V139.391H468.475V150.716C480.441 143.593 491.837 138.963 502.663 136.827V165.673C491.125 168.095 481.224 170.588 472.962 173.152L468.689 174.647V246.229H440.056Z" fill="#E74C3C"/>
<path d="M519.559 246.229V139.391H548.192V246.229H519.559ZM519.559 125.715V96.6553H548.192V125.715H519.559Z" fill="#E74C3C"/>
<path d="M665.46 96.6553V246.229H637.041V241.742C627.07 246.443 618.451 248.793 611.186 248.793C595.659 248.793 584.833 244.306 578.707 235.332C572.582 226.357 569.519 212.183 569.519 192.81C569.519 173.294 573.152 159.12 580.417 150.288C587.824 141.314 598.935 136.827 613.75 136.827C618.309 136.827 624.648 137.539 632.768 138.963L636.828 139.818V96.6553H665.46ZM633.836 220.588L636.828 219.947V163.75C628.993 162.325 622.013 161.613 615.887 161.613C604.349 161.613 598.579 171.87 598.579 192.383C598.579 203.494 599.861 211.4 602.426 216.101C604.99 220.802 609.192 223.152 615.032 223.152C621.015 223.152 627.283 222.297 633.836 220.588Z" fill="#E74C3C"/>
<path d="M788.715 259.477C788.715 271.728 784.014 280.774 774.613 286.614C765.211 292.455 752.461 295.375 736.364 295.375C720.41 295.375 708.088 293.238 699.398 288.965C690.851 284.691 686.578 276.928 686.578 265.674C686.578 256.699 691.706 248.224 701.962 240.246C696.692 236.685 694.056 231.272 694.056 224.007C694.056 221.158 696.193 216.457 700.467 209.904L702.39 206.913C692.703 199.933 687.86 189.676 687.86 176.143C687.86 162.468 691.919 152.567 700.039 146.442C708.301 140.317 719.199 137.254 732.732 137.254C738.857 137.254 744.911 137.966 750.894 139.391L754.313 140.032L788.715 138.963V161.827L772.689 160.545C775.823 165.388 777.39 170.231 777.39 175.075C777.39 189.32 773.758 199.149 766.493 204.562C759.228 209.975 747.832 212.682 732.304 212.682C729.028 212.682 726.108 212.397 723.544 211.827C722.119 215.531 721.407 218.594 721.407 221.015C721.407 223.295 722.618 224.862 725.039 225.716C727.461 226.571 733.159 227.07 742.134 227.212C760.082 227.354 772.333 229.776 778.886 234.477C785.439 239.035 788.715 247.369 788.715 259.477ZM714.783 262.682C714.783 268.808 722.262 271.87 737.219 271.87C752.319 271.87 759.869 268.309 759.869 261.187C759.869 257.34 758.587 254.848 756.023 253.708C753.458 252.711 748.045 252.141 739.783 251.999L720.552 250.503C716.706 254.349 714.783 258.409 714.783 262.682ZM716.492 175.288C716.492 185.687 721.906 190.887 732.732 190.887C743.701 190.887 749.185 185.687 749.185 175.288C749.185 164.747 743.701 159.476 732.732 159.476C721.906 159.476 716.492 164.747 716.492 175.288Z" fill="#E74C3C"/>
<path d="M829.566 204.99C829.708 211.542 831.418 216.314 834.694 219.306C838.113 222.155 842.956 223.579 849.224 223.579C862.472 223.579 874.296 223.152 884.695 222.297L890.678 221.656L891.105 242.81C874.723 246.799 859.908 248.793 846.66 248.793C830.563 248.793 818.882 244.52 811.617 235.973C804.352 227.426 800.72 213.537 800.72 194.306C800.72 155.986 816.46 136.827 847.942 136.827C878.997 136.827 894.524 152.924 894.524 185.118L892.387 204.99H829.566ZM866.318 183.195C866.318 174.647 864.965 168.736 862.259 165.459C859.552 162.04 854.78 160.331 847.942 160.331C841.247 160.331 836.475 162.112 833.626 165.673C830.919 169.092 829.495 174.932 829.352 183.195H866.318Z" fill="#E74C3C"/>
<path d="M888.866 126.997V100.929H995.705V126.997H957.243V246.229H927.756V126.997H888.866Z" fill="#2C3E50"/>
<path d="M1040.44 246.229H1011.81V96.6553H1040.44V144.519C1050.27 139.391 1059.1 136.827 1066.94 136.827C1081.18 136.827 1091.01 141.029 1096.43 149.434C1101.84 157.838 1104.54 170.801 1104.54 188.323V246.229H1075.91V188.964C1075.91 179.989 1074.84 173.365 1072.71 169.092C1070.57 164.676 1066.3 162.468 1059.89 162.468C1054.33 162.468 1048.78 163.323 1043.22 165.032L1040.44 165.887V246.229Z" fill="#2C3E50"/>
<path d="M1129.92 246.229V139.391H1158.55V246.229H1129.92ZM1129.92 125.715V96.6553H1158.55V125.715H1129.92Z" fill="#2C3E50"/>
<path d="M1213.64 246.229H1185V139.391H1213.42V145.374C1223.11 139.676 1232.01 136.827 1240.13 136.827C1254.38 136.827 1264.21 141.029 1269.62 149.434C1275.03 157.838 1277.74 170.801 1277.74 188.323V246.229H1249.11V189.177C1249.11 180.061 1248.04 173.365 1245.9 169.092C1243.77 164.676 1239.49 162.468 1233.08 162.468C1227.24 162.468 1221.61 163.465 1216.2 165.459L1213.64 166.314V246.229Z" fill="#2C3E50"/>
<path d="M1399.91 259.477C1399.91 271.728 1395.21 280.774 1385.8 286.614C1376.4 292.455 1363.65 295.375 1347.56 295.375C1331.6 295.375 1319.28 293.238 1310.59 288.965C1302.04 284.691 1297.77 276.928 1297.77 265.674C1297.77 256.699 1302.9 248.224 1313.15 240.246C1307.88 236.685 1305.25 231.272 1305.25 224.007C1305.25 221.158 1307.38 216.457 1311.66 209.904L1313.58 206.913C1303.89 199.933 1299.05 189.676 1299.05 176.143C1299.05 162.468 1303.11 152.567 1311.23 146.442C1319.49 140.317 1330.39 137.254 1343.92 137.254C1350.05 137.254 1356.1 137.966 1362.09 139.391L1365.5 140.032L1399.91 138.963V161.827L1383.88 160.545C1387.02 165.388 1388.58 170.231 1388.58 175.075C1388.58 189.32 1384.95 199.149 1377.68 204.562C1370.42 209.975 1359.02 212.682 1343.5 212.682C1340.22 212.682 1337.3 212.397 1334.74 211.827C1333.31 215.531 1332.6 218.594 1332.6 221.015C1332.6 223.295 1333.81 224.862 1336.23 225.716C1338.65 226.571 1344.35 227.07 1353.33 227.212C1371.27 227.354 1383.52 229.776 1390.08 234.477C1396.63 239.035 1399.91 247.369 1399.91 259.477ZM1325.97 262.682C1325.97 268.808 1333.45 271.87 1348.41 271.87C1363.51 271.87 1371.06 268.309 1371.06 261.187C1371.06 257.34 1369.78 254.848 1367.21 253.708C1364.65 252.711 1359.24 252.141 1350.97 251.999L1331.74 250.503C1327.9 254.349 1325.97 258.409 1325.97 262.682ZM1327.68 175.288C1327.68 185.687 1333.1 190.887 1343.92 190.887C1354.89 190.887 1360.38 185.687 1360.38 175.288C1360.38 164.747 1354.89 159.476 1343.92 159.476C1333.1 159.476 1327.68 164.747 1327.68 175.288Z" fill="#2C3E50"/>
<path d="M1493.96 166.1C1476.3 163.821 1463.91 162.682 1456.78 162.682C1449.8 162.682 1445.24 163.323 1443.11 164.605C1441.11 165.887 1440.12 167.952 1440.12 170.801C1440.12 173.508 1441.47 175.431 1444.18 176.571C1447.03 177.568 1454.15 179.135 1465.54 181.271C1477.08 183.266 1485.27 186.613 1490.12 191.314C1494.96 196.015 1497.38 203.636 1497.38 214.178C1497.38 237.255 1483.07 248.793 1454.43 248.793C1445.03 248.793 1433.63 247.511 1420.24 244.947L1413.41 243.665L1414.26 219.733C1431.93 222.013 1444.18 223.152 1451.01 223.152C1457.99 223.152 1462.7 222.511 1465.12 221.229C1467.68 219.805 1468.96 217.739 1468.96 215.032C1468.96 212.326 1467.61 210.331 1464.9 209.049C1462.34 207.767 1455.5 206.2 1444.39 204.349C1433.42 202.497 1425.23 199.363 1419.82 194.947C1414.4 190.531 1411.7 182.696 1411.7 171.442C1411.7 160.046 1415.54 151.499 1423.24 145.801C1430.93 139.961 1440.83 137.04 1452.94 137.04C1461.34 137.04 1472.81 138.394 1487.34 141.1L1494.39 142.382L1493.96 166.1Z" fill="#2C3E50"/>
<g clip-path="url(#clip0_133_53)">
<path d="M131.711 154.423L199.06 178.427L144.582 224.709L131.711 154.423Z" fill="#E74C3C"/>
<path fill-rule="evenodd" clip-rule="evenodd" d="M115.96 131.541L172.792 146.717L225.762 179.976L224.724 181.626L223.408 180.8L223.326 181.773L197.731 179.636L197.893 177.693L221.613 179.673L172.003 148.525L120.335 134.727L133.527 155.189L131.886 156.245L119.579 137.153V192.145H117.628V135.809H118.712L115.96 131.541ZM185.633 215.749L224.613 182.86L225.872 184.35L186.753 217.355L127.881 250.725L144.234 222.661L145.92 223.642L133.203 245.467L185.633 215.749ZM120.511 193.943L129.864 244.648L127.946 245.001L118.593 194.296L120.511 193.943Z" fill="#F39C12"/>
<path fill-rule="evenodd" clip-rule="evenodd" d="M133.165 156.878L183.697 129.218L182.447 126.938L131.664 154.735L90.6786 190.697L92.3949 192.651L133.165 156.878ZM196.791 178.837L186.382 129.875L188.927 129.335L199.392 178.564V242.128H196.791V241.564L196.174 243.357L144.618 225.642L90.9082 196.017L92.1653 193.741L145.677 223.257L196.791 240.821V178.837Z" fill="#18A185"/>
<path fill-rule="evenodd" clip-rule="evenodd" d="M187.99 124.614L228.741 182.104L199.187 245.24L128.908 250.831L88.1569 193.341L117.71 130.205L187.99 124.614ZM120.712 134.53L93.4022 192.871L131.126 246.091L196.185 240.915L223.495 182.574L185.771 129.354L120.712 134.53Z" fill="#2C3E50"/>
<path fill-rule="evenodd" clip-rule="evenodd" d="M197.583 110.215L188.502 127.863L185.611 126.377L194.691 108.729L197.583 110.215Z" fill="#2C3E50"/>
<path fill-rule="evenodd" clip-rule="evenodd" d="M102.933 112.366L115.745 132.373L118.484 130.622L105.672 110.614L102.933 112.366Z" fill="#2C3E50"/>
<path fill-rule="evenodd" clip-rule="evenodd" d="M263.344 132.664L253.174 142.518L250.91 140.186L261.081 130.331L263.344 132.664Z" fill="#2C3E50"/>
<path fill-rule="evenodd" clip-rule="evenodd" d="M228.878 48.9302L222.344 62.1058L219.43 60.6629L225.965 47.4873L228.878 48.9302Z" fill="#2C3E50"/>
<path d="M229.683 181.606C229.683 184.477 227.354 186.805 224.48 186.805C221.607 186.805 219.278 184.477 219.278 181.606C219.278 178.735 221.607 176.407 224.48 176.407C227.354 176.407 229.683 178.735 229.683 181.606Z" fill="#E74C3C"/>
<path d="M135.434 247.774C135.434 250.645 133.105 252.973 130.232 252.973C127.359 252.973 125.029 250.645 125.029 247.774C125.029 244.903 127.359 242.575 130.232 242.575C133.105 242.575 135.434 244.903 135.434 247.774Z" fill="#E74C3C"/>
<path d="M123.099 132.708C123.099 135.579 120.769 137.907 117.896 137.907C115.023 137.907 112.693 135.579 112.693 132.708C112.693 129.836 115.023 127.509 117.896 127.509C120.769 127.509 123.099 129.836 123.099 132.708Z" fill="#E74C3C"/>
<path d="M122.368 192.509C122.368 194.446 120.798 196.016 118.86 196.016C116.922 196.016 115.351 194.446 115.351 192.509C115.351 190.573 116.922 189.003 118.86 189.003C120.798 189.003 122.368 190.573 122.368 192.509Z" fill="#18A185"/>
<path d="M188.897 216.844C188.897 218.781 187.326 220.351 185.389 220.351C183.45 220.351 181.88 218.781 181.88 216.844C181.88 214.908 183.45 213.338 185.389 213.338C187.326 213.338 188.897 214.908 188.897 216.844Z" fill="#E74C3C"/>
<path d="M176.094 147.74C176.094 149.676 174.523 151.246 172.585 151.246C170.647 151.246 169.076 149.676 169.076 147.74C169.076 145.803 170.647 144.233 172.585 144.233C174.523 144.233 176.094 145.803 176.094 147.74Z" fill="#2C3E50"/>
<path fill-rule="evenodd" clip-rule="evenodd" d="M240.773 83.9906C240.773 101.653 226.444 115.971 208.77 115.971C191.095 115.971 176.767 101.653 176.767 83.9906C176.767 66.3286 191.095 52.0107 208.77 52.0107C226.444 52.0107 240.773 66.3286 240.773 83.9906ZM208.77 109.472C222.853 109.472 234.27 98.0639 234.27 83.9906C234.27 69.9176 222.853 58.5091 208.77 58.5091C194.686 58.5091 183.27 69.9176 183.27 83.9906C183.27 98.0639 194.686 109.472 208.77 109.472Z" fill="#179F84"/>
<path fill-rule="evenodd" clip-rule="evenodd" d="M247.93 38.1067C247.93 46.1613 241.396 52.6909 233.336 52.6909C225.275 52.6909 218.741 46.1613 218.741 38.1067C218.741 30.052 225.275 23.5225 233.336 23.5225C241.396 23.5225 247.93 30.052 247.93 38.1067ZM233.336 46.1925C237.805 46.1925 241.427 42.5723 241.427 38.1067C241.427 33.641 237.805 30.0208 233.336 30.0208C228.867 30.0208 225.244 33.641 225.244 38.1067C225.244 42.5723 228.867 46.1925 233.336 46.1925Z" fill="#179F84"/>
<path fill-rule="evenodd" clip-rule="evenodd" d="M288.831 124.622C288.831 133.387 281.72 140.494 272.947 140.494C264.175 140.494 257.064 133.387 257.064 124.622C257.064 115.856 264.175 108.75 272.947 108.75C281.72 108.75 288.831 115.856 288.831 124.622ZM272.947 135.945C279.206 135.945 284.279 130.875 284.279 124.622C284.279 118.368 279.206 113.298 272.947 113.298C266.689 113.298 261.616 118.368 261.616 124.622C261.616 130.875 266.689 135.945 272.947 135.945Z" fill="#179F84"/>
<path d="M255.809 147.74C255.809 155.327 249.654 161.478 242.062 161.478C234.469 161.478 228.315 155.327 228.315 147.74C228.315 140.154 234.469 134.003 242.062 134.003C249.654 134.003 255.809 140.154 255.809 147.74Z" fill="#2C3E50"/>
<path d="M114.639 95.5525C114.639 108.114 104.449 118.297 91.8791 118.297C79.3088 118.297 69.1187 108.114 69.1187 95.5525C69.1187 82.9915 79.3088 72.8086 91.8791 72.8086C104.449 72.8086 114.639 82.9915 114.639 95.5525Z" fill="#F39C12"/>
</g>
<defs>
<clipPath id="clip0_133_53">
<rect width="220" height="254" fill="white" transform="translate(69 23.0498)"/>
</clipPath>
</defs>
</svg>
